HIERARCHY
ROOT Hips
{
  OFFSET 5.84602e-005 68.8428 3.50346
  CHANNELS 6 Xposition Yposition Zposition Zrotation Xrotation Yrotation
  JOINT Spine
  {
    OFFSET 0 8.597 -4.6522
    CHANNELS 3 Zrotation Xrotation Yrotation
    JOINT Spine1
    {
      OFFSET 0 7.8454 0.4098
      CHANNELS 3 Zrotation Xrotation Yrotation
      JOINT Spine2
      {
        OFFSET 0 9.7078 -2.1609
        CHANNELS 3 Zrotation Xrotation Yrotation
        JOINT Neck
        {
          OFFSET 0 21.8761 -0.4549
          CHANNELS 3 Zrotation Xrotation Yrotation
          JOINT Head
          {
            OFFSET 0 12.3537 3.3602
            CHANNELS 3 Zrotation Xrotation Yrotation
            End Site
            {
              OFFSET 0.0001 18.9506 0.5657
            }
          }
        }
        JOINT LeftShoulder
        {
          OFFSET 2.2086 21.1115 7.2329
          CHANNELS 3 Zrotation Xrotation Yrotation
          JOINT LeftArm
          {
            OFFSET 13.1193 3.0282 -4.8998
            CHANNELS 3 Zrotation Xrotation Yrotation
            JOINT LeftForeArm
            {
              OFFSET 27.4081 -0.0973053 -0.2375
              CHANNELS 3 Zrotation Xrotation Yrotation
              JOINT LeftHand
              {
                OFFSET 22.8641 0.0662994 -0.1369
                CHANNELS 3 Zrotation Xrotation Yrotation
                JOINT LeftHandIndex1
                {
                  OFFSET 8.8614 0.775009 2.4612
                  CHANNELS 3 Zrotation Xrotation Yrotation
                  JOINT LeftHandIndex2
                  {
                    OFFSET 3.3146 -0.808304 0.5841
                    CHANNELS 3 Zrotation Xrotation Yrotation
                    JOINT LeftHandIndex3
                    {
                      OFFSET 2.2628 -0.552002 0.3989
                      CHANNELS 3 Zrotation Xrotation Yrotation
                      End Site
                      {
                        OFFSET 1.6102 -0.4807 0.2612
                      }
                    }
                  }
                }
                JOINT LeftHandMiddle1
                {
                  OFFSET 8.9937 0.895004 0.2143
                  CHANNELS 3 Zrotation Xrotation Yrotation
                  JOINT LeftHandMiddle2
                  {
                    OFFSET 4.0984 0.0113983 -0.0242
                    CHANNELS 3 Zrotation Xrotation Yrotation
                    JOINT LeftHandMiddle3
                    {
                      OFFSET 2.2716 0.00689697 -0.0138001
                      CHANNELS 3 Zrotation Xrotation Yrotation
                      End Site
                      {
                        OFFSET 2.0404 -0.1441 0.0027
                      }
                    }
                  }
                }
                JOINT LeftHandRing1
                {
                  OFFSET 8.5234 0.597198 -2.0164
                  CHANNELS 3 Zrotation Xrotation Yrotation
                  JOINT LeftHandRing2
                  {
                    OFFSET 3.7188 -0.188293 -0.2328
                    CHANNELS 3 Zrotation Xrotation Yrotation
                    JOINT LeftHandRing3
                    {
                      OFFSET 2.1191 -0.106598 -0.1332
                      CHANNELS 3 Zrotation Xrotation Yrotation
                      End Site
                      {
                        OFFSET 1.8737 -0.2304 -0.0886
                      }
                    }
                  }
                }
                JOINT LeftHandPinky1
                {
                  OFFSET 7.9094 -0.601089 -3.4825
                  CHANNELS 3 Zrotation Xrotation Yrotation
                  JOINT LeftHandPinky2
                  {
                    OFFSET 2.2874 -0.477005 -0.6314
                    CHANNELS 3 Zrotation Xrotation Yrotation
                    JOINT LeftHandPinky3
                    {
                      OFFSET 1.6774 -0.349396 -0.4633
                      CHANNELS 3 Zrotation Xrotation Yrotation
                      End Site
                      {
                        OFFSET 1.4888 -0.4091 -0.3416
                      }
                    }
                  }
                }
                JOINT LeftHandThumb1
                {
                  OFFSET 1.833 -1.3875 1.3896
                  CHANNELS 3 Zrotation Xrotation Yrotation
                  JOINT LeftHandThumb2
                  {
                    OFFSET 3.4129 -1.121 2.5732
                    CHANNELS 3 Zrotation Xrotation Yrotation
                    JOINT LeftHandThumb3
                    {
                      OFFSET 2.2474 -0.804199 1.6192
                      CHANNELS 3 Zrotation Xrotation Yrotation
                      End Site
                      {
                        OFFSET 1.6527 -0.5689 1.1317
                      }
                    }
                  }
                }
              }
            }
          }
        }
        JOINT RightShoulder
        {
          OFFSET -2.2086 21.1115 7.2329
          CHANNELS 3 Zrotation Xrotation Yrotation
          JOINT RightArm
          {
            OFFSET -13.1216 3.0287 -4.9007
            CHANNELS 3 Zrotation Xrotation Yrotation
            JOINT RightForeArm
            {
              OFFSET -27.4081 -0.0973053 -0.2375
              CHANNELS 3 Zrotation Xrotation Yrotation
              JOINT RightHand
              {
                OFFSET -22.8641 0.0664063 -0.1369
                CHANNELS 3 Zrotation Xrotation Yrotation
                JOINT RightHandIndex1
                {
                  OFFSET -8.8614 0.774994 2.4612
                  CHANNELS 3 Zrotation Xrotation Yrotation
                  JOINT RightHandIndex2
                  {
                    OFFSET -3.3146 -0.808304 0.5841
                    CHANNELS 3 Zrotation Xrotation Yrotation
                    JOINT RightHandIndex3
                    {
                      OFFSET -2.2628 -0.552002 0.3989
                      CHANNELS 3 Zrotation Xrotation Yrotation
                      End Site
                      {
                        OFFSET -1.6102 -0.4807 0.2612
                      }
                    }
                  }
                }
                JOINT RightHandMiddle1
                {
                  OFFSET -8.9937 0.894989 0.2143
                  CHANNELS 3 Zrotation Xrotation Yrotation
                  JOINT RightHandMiddle2
                  {
                    OFFSET -4.0984 0.0113983 -0.0242
                    CHANNELS 3 Zrotation Xrotation Yrotation
                    JOINT RightHandMiddle3
                    {
                      OFFSET -2.2716 0.00691223 -0.0138001
                      CHANNELS 3 Zrotation Xrotation Yrotation
                      End Site
                      {
                        OFFSET -2.0404 -0.1441 0.0027
                      }
                    }
                  }
                }
                JOINT RightHandRing1
                {
                  OFFSET -8.5234 0.597198 -2.0164
                  CHANNELS 3 Zrotation Xrotation Yrotation
                  JOINT RightHandRing2
                  {
                    OFFSET -3.7188 -0.188309 -0.2328
                    CHANNELS 3 Zrotation Xrotation Yrotation
                    JOINT RightHandRing3
                    {
                      OFFSET -2.1191 -0.106598 -0.1332
                      CHANNELS 3 Zrotation Xrotation Yrotation
                      End Site
                      {
                        OFFSET -1.8737 -0.2304 -0.0886
                      }
                    }
                  }
                }
                JOINT RightHandPinky1
                {
                  OFFSET -7.9094 -0.601105 -3.4825
                  CHANNELS 3 Zrotation Xrotation Yrotation
                  JOINT RightHandPinky2
                  {
                    OFFSET -2.2874 -0.477005 -0.6314
                    CHANNELS 3 Zrotation Xrotation Yrotation
                    JOINT RightHandPinky3
                    {
                      OFFSET -1.6774 -0.349396 -0.4633
                      CHANNELS 3 Zrotation Xrotation Yrotation
                      End Site
                      {
                        OFFSET -1.4888 -0.4091 -0.3416
                      }
                    }
                  }
                }
                JOINT RightHandThumb1
                {
                  OFFSET -1.833 -1.38751 1.3896
                  CHANNELS 3 Zrotation Xrotation Yrotation
                  JOINT RightHandThumb2
                  {
                    OFFSET -3.41299 -1.12099 2.5732
                    CHANNELS 3 Zrotation Xrotation Yrotation
                    JOINT RightHandThumb3
                    {
                      OFFSET -2.24741 -0.804108 1.6192
                      CHANNELS 3 Zrotation Xrotation Yrotation
                      End Site
                      {
                        OFFSET -1.6527 -0.5689 1.1317
                      }
                    }
                  }
                }
              }
            }
          }
        }
      }
    }
  }
  JOINT RightUpLeg
  {
    OFFSET -9.1966 3.8861 -0.7581
    CHANNELS 3 Zrotation Xrotation Yrotation
    JOINT RightLeg
    {
      OFFSET -0.7359 -41.0265 0
      CHANNELS 3 Zrotation Xrotation Yrotation
      JOINT RightFoot
      {
        OFFSET 0 -40.2855 0
        CHANNELS 3 Zrotation Xrotation Yrotation
        JOINT RightToeBase
        {
          OFFSET 0 -5.6122 11.7359
          CHANNELS 3 Zrotation Xrotation Yrotation
          End Site
          {
            OFFSET 0 0 7.8731
          }
        }
      }
    }
  }
  JOINT LeftUpLeg
  {
    OFFSET 9.1965 3.8864 -0.7581
    CHANNELS 3 Zrotation Xrotation Yrotation
    JOINT LeftLeg
    {
      OFFSET 0.7359 -41.0268 0
      CHANNELS 3 Zrotation Xrotation Yrotation
      JOINT LeftFoot
      {
        OFFSET 0 -40.2855 0
        CHANNELS 3 Zrotation Xrotation Yrotation
        JOINT LeftToeBase
        {
          OFFSET 0 -5.6122 11.7359
          CHANNELS 3 Zrotation Xrotation Yrotation
          End Site
          {
            OFFSET 0 0 7.8731
          }
        }
      }
    }
  }
}
MOTION
Frames:	4
Frame Time:	0.0333333
5.84602e-005 68.8428 3.50346 0 0 -0 0 0 -0 0 0 -0 0 0 -0 0 0 -0 0 0 -0 0 0 -0 0 0 -0 0 0 -0 0 0 -0 0 0 -0 0 0 -0 0 0 -0 0 0 -0 -0.0146107 -8.87603e-005 -2.63497e-007 2.99804e-018 -2.42657e-020 -1.42182e-022 0 0 -0 -0.0187562 -0.001176 5.858e-005 5.06224e-018 3.88251e-019 1.21329e-020 0 0 -0 -0.012269 -0.00324817 0.000675346 -1.74678e-018 3.88251e-019 -0 0 0 -0 0 0 -0 0 0 -0 0 0 -0 0 0 -0 0 0 -0 0 0 -0 0 0 -0 0 0 -0 0 0 -0 0 0 -0 0.0149955 -9.10982e-005 2.64101e-007 -9.69331e-018 1.21329e-020 -4.7394e-023 0 0 -0 0.0189956 -0.00119102 -5.96516e-005 -5.41541e-019 0 2.42657e-020 0 0 -0 0.0122698 -0.00324857 -0.000673756 -2.00796e-019 0 -1.94126e-019 0 0 -0 0 0 -0 0 0 -0 3.39842 1.33031 -0.0637918 -5.65207e-008 0.834868 -0.000436188 -3.39935 -2.16518 -0.0642563 -8.89002e-024 -1.18485e-023 -1.48106e-024 -3.39844 1.35642 0.0640283 -3.18788e-007 0.782166 -0.000588827 3.39931 -2.13858 0.0634662 1.1399e-023 0 -0 
3.28273e-005 -1.70794 3.44478 0 0 -0 0 0.199557 -0 0 0.399115 -0 0 0.399115 -0 0 0.000400464 -0 0 0 -0 -3.36265e-010 4.3996e-005 -2.0022 -76.8398 10.7954 -70.7155 -9.01473e-006 -7.07687e-006 -32.002 4.99721 -5.45204e-006 -3.78297e-006 1.10095e-006 -1.31289e-006 1.31595e-006 9.98344e-007 -8.38627e-007 8.9008e-007 1.59028e-015 3.97569e-016 4.77083e-015 1.10095e-006 -1.31289e-006 1.31595e-006 -0.0146065 -9.05975e-005 -1.05004e-007 4.77083e-015 7.7526e-015 4.77083e-015 1.10095e-006 -1.31289e-006 1.31595e-006 -0.0187469 -0.00116996 5.49997e-005 1.10317e-006 -1.31297e-006 1.31572e-006 1.10095e-006 -1.31289e-006 1.31595e-006 -0.0122444 -0.00324632 0.00067757 3.18055e-015 7.95139e-016 -1.59028e-015 1.10095e-006 -1.31289e-006 1.31595e-006 9.98344e-007 -8.38627e-007 8.9008e-007 1.59028e-015 3.97569e-016 4.77083e-015 -1.36045e-008 4.40591e-005 11.9978 61.0966 8.40267 75.1689 3.16012e-006 1.46385e-006 31.9984 -10.0022 -2.83385e-006 6.99164e-006 1.59028e-015 -7.95139e-016 -3.18055e-015 4.77083e-015 1.59028e-015 -9.54166e-015 4.77083e-015 7.95139e-016 -0 1.59028e-015 -7.95139e-016 -3.18055e-015 0.0149985 -8.882e-005 -1.28633e-006 -1.59028e-015 -1.11319e-014 -3.18055e-015 1.59028e-015 -7.95139e-016 -3.18055e-015 0.0190117 -0.00119298 -5.86132e-005 3.08973e-031 5.56597e-015 -3.18055e-015 1.59028e-015 -7.95139e-016 -3.18055e-015 0.012284 -0.00325401 -0.0006752 -3.21672e-006 -3.39813e-007 -8.48831e-007 1.59028e-015 -7.95139e-016 -3.18055e-015 4.77083e-015 1.59028e-015 -9.54166e-015 4.77083e-015 7.95139e-016 -0 -35.4172 -69.4147 -48.5815 179.854 25.2198 169.811 6.22761 59.0562 -10.3639 -2.75341e-007 -7.15113e-008 -7.99371e-007 33.9909 -68.6301 47.0535 -179.855 25.2088 -169.8 -6.24018 59.0875 10.3803 -1.29064e-006 6.55869e-006 -1.02475e-006 
3.28273e-005 -1.70794 3.44478 0 0 -0 0 0.199557 -0 0 0.399115 -0 0 0.399115 -0 0.092693 0.319493 0.595574 0.0170711 0.221187 0.165555 -2.27652e-010 4.49566e-005 -2.0022 -76.8398 10.7954 -70.7155 6.00805e-006 -6.72371e-006 -31.2019 4.9972 5.41529e-006 -1.15771e-006 1.59028e-015 -1.78906e-015 1.59028e-015 -1.59028e-015 -9.93923e-016 1.59028e-015 1.59028e-015 -7.95139e-016 3.18055e-015 1.59028e-015 -1.78906e-015 1.59028e-015 -0.0146099 -8.92843e-005 -9.8429e-007 1.59028e-015 -7.35503e-015 1.59028e-015 1.59028e-015 -1.78906e-015 1.59028e-015 -0.01876 -0.00117385 5.7714e-005 -1.98626e-031 -2.38542e-015 -4.77083e-015 1.59028e-015 -1.78906e-015 1.59028e-015 -0.0122662 -0.00325244 0.000680817 7.95139e-015 7.35503e-015 3.18055e-015 1.59028e-015 -1.78906e-015 1.59028e-015 -1.59028e-015 -9.93923e-016 1.59028e-015 1.59028e-015 -7.95139e-016 3.18055e-015 -1.44805e-008 4.50247e-005 11.9978 61.0966 8.40268 75.1689 -1.88174e-007 -6.31045e-006 34.5959 -10.0022 -2.12718e-006 6.41092e-006 7.95139e-015 -4.77083e-015 -0 4.77083e-015 3.97569e-015 -0 4.77083e-015 7.95139e-016 -0 7.95139e-015 -4.77083e-015 -0 0.0149919 -9.42495e-005 -2.86256e-006 -0 -4.77083e-015 -0 7.95139e-015 -4.77083e-015 -0 0.0190196 -0.00119845 -6.01131e-005 -6.36111e-015 1.03368e-014 -0 7.95139e-015 -4.77083e-015 -0 0.0122772 -0.00325033 -0.000673777 1.59028e-015 3.97569e-015 -0 7.95139e-015 -4.77083e-015 -0 4.77083e-015 3.97569e-015 -0 4.77083e-015 7.95139e-016 -0 -35.4172 -69.4147 -48.5815 179.854 25.2198 169.811 6.22761 59.0562 -10.3639 -2.75341e-007 -7.15113e-008 -7.99371e-007 33.9907 -68.6302 47.0534 -179.855 25.2088 -169.8 -6.24018 59.0875 10.3803 -3.76974e-007 3.207e-006 2.89373e-007 
3.28273e-005 -1.70794 3.44478 0 0 -0 0 0.199557 -0 0 0.399115 -0 0 0.399115 -0 0.182234 0.640154 1.19179 0.033509 0.442489 0.331099 -2.27652e-010 4.49566e-005 -2.0022 -76.8398 10.7954 -70.7155 -5.6381e-007 -1.81891e-006 -30.4017 4.99721 2.7462e-006 2.1502e-006 7.1726e-032 2.5842e-015 -1.59028e-015 0 4.57205e-015 -0 7.72434e-032 2.78299e-015 -1.59028e-015 7.1726e-032 2.5842e-015 -1.59028e-015 -0.0146107 -8.97262e-005 -6.14137e-006 5.18634e-031 -1.86858e-014 1.59028e-015 7.1726e-032 2.5842e-015 -1.59028e-015 -0.018756 -0.00118405 6.57651e-005 9.93129e-032 3.57812e-015 -1.59028e-015 7.1726e-032 2.5842e-015 -1.59028e-015 -0.0122687 -0.00324145 0.000672966 4.96564e-032 5.96354e-016 -4.77083e-015 7.1726e-032 2.5842e-015 -1.59028e-015 0 4.57205e-015 -0 7.72434e-032 2.78299e-015 -1.59028e-015 -1.44805e-008 4.50247e-005 11.9978 61.0966 8.40268 75.1689 -1.1626e-006 -5.46846e-007 37.1976 -10.0022 -4.06221e-006 4.59627e-006 -1.59028e-015 0 -3.18055e-015 8.82781e-032 1.59028e-015 -3.18055e-015 2.64834e-031 4.77083e-015 -3.18055e-015 -1.59028e-015 0 -3.18055e-015 0.0150072 -8.52848e-005 5.72185e-006 3.18055e-015 0 -0 -1.59028e-015 0 -3.18055e-015 0.0190151 -0.00119186 -5.62515e-005 -1.59028e-015 6.36111e-015 3.18055e-015 -1.59028e-015 0 -3.18055e-015 0.0123017 -0.00325919 -0.000671309 -3.2353e-006 -1.02537e-007 -1.35199e-006 -1.59028e-015 0 -3.18055e-015 8.82781e-032 1.59028e-015 -3.18055e-015 2.64834e-031 4.77083e-015 -3.18055e-015 -35.4172 -69.4147 -48.5815 179.854 25.2198 169.811 6.22761 59.0562 -10.3639 -2.75341e-007 -7.15113e-008 -7.99371e-007 33.9907 -68.6302 47.0534 -179.855 25.2088 -169.8 -6.24018 59.0875 10.3803 -3.76974e-007 3.207e-006 2.89373e-007 
